<svg xmlns="http://www.w3.org/2000/svg" width="56" height="63" fill="none"><g filter="url(#a)"><path fill="currentColor" d="M50 26c0-5.582 0-8.373-.689-10.645A16 16 0 0 0 38.645 4.69C36.373 4 33.582 4 28 4s-8.373 0-10.645.689A16 16 0 0 0 6.69 15.355C6 17.627 6 20.418 6 26v3.743c0 1.38 0 2.07.046 2.673A16 16 0 0 0 18.453 46.81c.59.134 1.272.236 2.637.44.46.068.69.102.894.147a6 6 0 0 1 4.604 4.762c.038.206.064.436.117.898l.11.96a1.205 1.205 0 0 0 2.37 0l.11-.96c.052-.462.079-.693.117-.898a6 6 0 0 1 4.604-4.762c.204-.045.434-.079.894-.148 1.365-.203 2.047-.305 2.637-.439a16 16 0 0 0 12.407-14.394c.046-.603.046-1.293.046-2.673z"/></g><defs><filter id="a" width="56" height="63" x="0" y="0" color-interpolation-filters="sRGB" filterUnits="userSpaceOnUse"><feFlood flood-opacity="0" result="BackgroundImageFix"/><feColorMatrix in="SourceAlpha" result="hardAlpha" values="0 0 0 0 0 0 0 0 0 0 0 0 0 0 0 0 0 0 127 0"/><feOffset dy="2"/><feGaussianBlur stdDeviation="3"/><feComposite in2="hardAlpha" operator="out"/><feColorMatrix values="0 0 0 0 0.0941176 0 0 0 0 0.105882 0 0 0 0 0.133333 0 0 0 0.4 0"/><feBlend in2="BackgroundImageFix" result="effect1_dropShadow_12070_19"/><feBlend in="SourceGraphic" in2="effect1_dropShadow_12070_19" result="shape"/></filter></defs></svg>