<svg xmlns="http://www.w3.org/2000/svg" width="24" height="24" fill="none"><path fill="currentColor" d="M1.93 19.572a1.427 1.427 0 0 0 .062 1.992c.562.548 1.466.57 2.056.051l1.045-.92 2.276 2.218a.89.89 0 0 0 1.233 0 .83.83 0 0 0 .211-.87l-1.215-3.55 7.372-6.484L22 24l1.32-1.324c.392-.382.535-.944.372-1.46l-4.171-13.21 1.294-1.138a7.8 7.8 0 0 0 2.063-2.885l1.045-2.544a1.03 1.03 0 0 0-.238-1.132 1.1 1.1 0 0 0-1.15-.236l-2.574.969a8 8 0 0 0-3.035 2.03l.044.023-7.576 8.265-4.302 4.733-3.582-1.163a.89.89 0 0 0-.893.206.834.834 0 0 0 0 1.201l2.256 2.198zM10 8l3.5-4L2.853.912a1.53 1.53 0 0 0-1.488.366L0 2.5z"/></svg>