<svg xmlns="http://www.w3.org/2000/svg" width="24" height="24" fill="none"><path fill="currentColor" fill-rule="evenodd" d="M18 0a4.26 4.26 0 0 0 3.5 3.5A4.26 4.26 0 0 0 18 7a4.26 4.26 0 0 0-3.5-3.5A4.26 4.26 0 0 0 18 0m-6 2.464 1.768 1.768L12 6l-1.768-1.768zm5.645 11.838C20.275 13.582 22 12.372 22 11c0-2.21-4.477-4-10-4S2 8.79 2 11c0 1.371 1.725 2.581 4.355 3.302l-.838 5.587a.8.8 0 0 0-.007.22C5.586 20.65 6.247 23 12 23s6.414-2.35 6.49-2.89a.8.8 0 0 0-.007-.22zM17 10.5c0 .828-2.239 1.5-5 1.5s-5-.672-5-1.5S9.239 9 12 9s5 .672 5 1.5" clip-rule="evenodd"/></svg>