<svg xmlns="http://www.w3.org/2000/svg" width="24" height="24" fill="none"><path fill="currentColor" fill-rule="evenodd" d="M14 0h-4v2.723a9 9 0 0 0-5 3.12V4.5H1v4h2.512a9 9 0 0 0-.512 3c0 1.052.18 2.062.512 3H1v4h4v-1.343a9 9 0 0 0 4.931 3.104L9.731 22H7v2h10v-2h-2.73l-.201-1.739A9 9 0 0 0 19 17.157V18.5h4v-4h-2.512a9 9 0 0 0 .512-3c0-1.052-.18-2.062-.512-3H23v-4h-4v1.343a9 9 0 0 0-5-3.12zm-3.115 11.993-.722 6.263a7 7 0 1 1 3.675 0l-.723-6.263a1.122 1.122 0 0 0-2.23 0" clip-rule="evenodd"/></svg>