<svg xmlns="http://www.w3.org/2000/svg" width="24" height="24" fill="none"><path fill="currentColor" fill-rule="evenodd" d="M0 12.621c0-.398.158-.779.44-1.06l.81-.81a1.5 1.5 0 0 0 .362-.587L1.667 10H1a1 1 0 0 1 0-2h1.333l1.325-3.974A1.5 1.5 0 0 1 5.081 3H18.92a1.5 1.5 0 0 1 1.423 1.026L21.667 8H23a1 1 0 1 1 0 2h-.667l.055.164a1.5 1.5 0 0 0 .362.586l.81.81a1.5 1.5 0 0 1 .44 1.061V19.5a1.5 1.5 0 0 1-1.5 1.5h-2a1.5 1.5 0 0 1-1.5-1.5V19H5v.5A1.5 1.5 0 0 1 3.5 21h-2A1.5 1.5 0 0 1 0 19.5zm2 1.129c0-.69.56-1.25 1.25-1.25h1.734a1.5 1.5 0 0 1 1.393.943L7 15H3.25C2.56 15 2 14.44 2 13.75m15.623-.307a1.5 1.5 0 0 1 1.392-.943h1.735a1.25 1.25 0 1 1 0 2.5H17zM19.698 10H4.302l1.5-4.5h12.396z" clip-rule="evenodd"/></svg>