<svg xmlns="http://www.w3.org/2000/svg" width="24" height="24" fill="none"><path fill="currentColor" fill-rule="evenodd" d="M10.47 3.805c-.135.485-.388.92-.727 1.273q.155.05.32.106c5.789 2.005 9.5 7.505 11.437 13.316 0 0-5.194-.951-8.904-4.661q-.675-.677-1.274-1.355a7.01 7.01 0 0 0 4.398 5.077L13.5 22H11l1.447-4.824a11.2 11.2 0 0 1-4.589-2.348l-.468-.398A10.45 10.45 0 0 1 4.928 1.58l.06-.115a.3.3 0 0 1 .067-.087 3.001 3.001 0 0 1 5.415.817L12.079 3zM11 24v-2H3v2zm2.5 0H22v-2h-8.5zM9 2.5l-1-1-1 1 1 1z" clip-rule="evenodd"/></svg>