<svg xmlns="http://www.w3.org/2000/svg" width="24" height="24" fill="none"><path fill="currentColor" d="M18.867.397A.581.581 0 0 1 20 .581V1.89L22.712 4.3a1.5 1.5 0 0 1 .397 1.678l-.096.24a1.5 1.5 0 0 1-1.834.876l-2.187-.673.008.078.556 3.06 1.549 7.122a1.5 1.5 0 0 1-1.466 1.819h-.156a1.5 1.5 0 0 1-1.375-.902L16.5 13.902A1.5 1.5 0 0 0 15.125 13h-5.07a1.5 1.5 0 0 0-1.356.858l-1.793 3.784a1.5 1.5 0 0 1-1.355.858h-.105a1.5 1.5 0 0 1-1.45-1.882L5.867 9.5H4.5c-.552 0-1 .31-1 1 0 1-.56 1.5-1.25 1.5S1 11.5 1 10.5C1 8.5 2.567 7 4.5 7h10.016c-.01-.165 0 .169 0 0 0-3.5 1.732-5.942 3.905-6v.004a1.317 1.317 0 0 1 .242.006zM1.5 21.285c0 .637.408 1.206 1.02 1.383C5.457 23.515 8.865 24 12.5 24c3.634 0 7.043-.485 9.98-1.332a1.43 1.43 0 0 0 1.02-1.383c0-1.032-1.032-1.75-2.024-1.47C18.803 20.572 15.746 21 12.5 21s-6.303-.429-8.976-1.184c-.992-.28-2.024.438-2.024 1.469"/></svg>