<svg xmlns="http://www.w3.org/2000/svg" width="24" height="24" fill="none"><path fill="currentColor" d="M8 0H7l-.672.672a1.5 1.5 0 0 0-.225 1.832l.473.79a1.5 1.5 0 0 1 .056 1.442L6.5 5H8l.236-.236a1.5 1.5 0 0 0 .28-1.731l-.68-1.362a1.5 1.5 0 0 1 0-1.342zM5.78 16.83A9.99 9.99 0 0 1 2.05 10H1.5a1.5 1.5 0 1 1 0-3H11v2a1 1 0 1 0 2 0V7h9.5a1.5 1.5 0 0 1 0 3h-.55a9.99 9.99 0 0 1-3.73 6.83L23 24h-3l-3.914-5.87c-1.247.559-2.63.87-4.086.87a10 10 0 0 1-4.086-.87L4 24H1zM16 0h1l-.165.33a1.5 1.5 0 0 0 0 1.34l.681 1.363a1.5 1.5 0 0 1-.28 1.731L17 5h-1.5l.132-.264a1.5 1.5 0 0 0-.056-1.442l-.473-.79a1.5 1.5 0 0 1 .225-1.832zM12.5 0h-1l-.672.672a1.5 1.5 0 0 0-.225 1.832l.473.79a1.5 1.5 0 0 1 .056 1.442L11 5h1.5l.236-.236a1.5 1.5 0 0 0 .28-1.731l-.68-1.362a1.5 1.5 0 0 1 0-1.342z"/></svg>