<svg xmlns="http://www.w3.org/2000/svg" width="25" height="24" fill="none"><path fill="currentColor" fill-rule="evenodd" d="M6.388 2.673q-.602-.71-1.154-1.332c-.681-.77-1.79-.129-1.464.846.178.535.375 1.107.59 1.702C.366 6.921-1.06 12.409.816 17.291c.126.328.549.404.8.157 2.196-2.149 5.05-4.308 8.352-6.215 3.436-1.984 6.866-3.41 9.915-4.222.341-.091.492-.495.272-.771-3.36-4.222-9.05-5.737-13.768-3.568M10.701 8.5a40 40 0 0 0-3.464 2c-1.11-2.003-2.102-4.453-2.878-6.612a10.8 10.8 0 0 1 2.029-1.216C7.877 4.43 9.514 6.528 10.701 8.5" clip-rule="evenodd"/><path fill="currentColor" d="M10.627 13a1 1 0 0 0-.366 1.366l2.097 3.632a50 50 0 0 1 2.35.07l-2.715-4.702A1 1 0 0 0 10.627 13M24.002 22v1h-24v-1a39.04 39.04 0 0 1 24 0"/></svg>