<svg xmlns="http://www.w3.org/2000/svg" width="24" height="24" fill="none"><path fill="currentColor" fill-rule="evenodd" d="M12.25 2a1.25 1.25 0 1 0 0 2.5h2.295l.876 3.21-1.706.568a1.5 1.5 0 0 0-.919.866L10.654 14.5H9.33A5 5 0 1 0 9.9 18h1.03a1.5 1.5 0 0 0 1.393-.943l2.622-6.554 1.134-.378.659 2.415a5 5 0 1 0 2.445-.537L16.455 2zM5 19.5a2.5 2.5 0 1 0 0-5 2.5 2.5 0 0 0 0 5m14 0a2.5 2.5 0 1 0 0-5 2.5 2.5 0 0 0 0 5" clip-rule="evenodd"/><path fill="currentColor" d="M5.25 6a1.25 1.25 0 1 0 0 2.5h1.84l1.091 4h2.592L9 6z"/></svg>