<svg xmlns="http://www.w3.org/2000/svg" width="24" height="24" fill="none"><path fill="currentColor" d="M12 0a1.5 1.5 0 0 0-1.5 1.5V2h3v2h-3V2h-2A1.5 1.5 0 0 0 7 3.5V8l4.228-2.537a1.5 1.5 0 0 1 1.544 0L17 8V3.5A1.5 1.5 0 0 0 15.5 2h-2v-.5A1.5 1.5 0 0 0 12 0M10.617 8.26l-7.425 4.085c-.677.371-.996 1.446-.692 2.155l2 4c1.393-.084 2.523-.625 3.5-1.5 1.062.95 2.463 1.5 4 1.5s2.939-.55 4-1.5c.977.875 2.107 1.416 3.5 1.5l2-4c.304-.71-.015-1.783-.692-2.155L13.383 8.26l-.807 5.245a.583.583 0 0 1-1.152 0zM8 19c-1.061.95-2.463 1.5-4 1.5s-2.938-.55-4-1.5v3.5C1.11 23.525 2.37 24 4 24c1.471 0 2.935-.646 4-1.5 1.065.854 2.528 1.5 4 1.5s2.935-.646 4-1.5c1.065.854 2.529 1.5 4 1.5 1.63 0 2.89-.475 4-1.5V19c-1.061.95-2.463 1.5-4 1.5s-2.939-.55-4-1.5c-1.062.95-2.463 1.5-4 1.5s-2.938-.55-4-1.5"/></svg>