<svg xmlns="http://www.w3.org/2000/svg" width="24" height="24" fill="none"><path fill="currentColor" fill-rule="evenodd" d="M10 1.5A1.5 1.5 0 0 1 11.5 0h2A1.5 1.5 0 0 1 15 1.5v21a1.5 1.5 0 0 1-1.5 1.5h-2a1.5 1.5 0 0 1-1.5-1.5zM3.934 7.105a1.5 1.5 0 0 1 1.837-1.06l1.931.517A1.5 1.5 0 0 1 8.764 8.4L4.881 22.888a1.5 1.5 0 0 1-1.837 1.06l-1.932-.517a1.5 1.5 0 0 1-1.06-1.837zM17 6.5A1.5 1.5 0 0 1 18.5 5h4A1.5 1.5 0 0 1 24 6.5v16a1.5 1.5 0 0 1-1.5 1.5h-4a1.5 1.5 0 0 1-1.5-1.5zM19 19h3v3h-3z" clip-rule="evenodd"/></svg>