<svg xmlns="http://www.w3.org/2000/svg" width="24" height="24" fill="none"><path fill="currentColor" d="M24 4.5a2.5 2.5 0 1 1-5 0 2.5 2.5 0 0 1 5 0M5 6.5a2.5 2.5 0 1 1-5 0 2.5 2.5 0 0 1 5 0"/><path fill="currentColor" fill-rule="evenodd" d="M24 8.922a1.5 1.5 0 0 0-1.864-1.456l-5.285 1.322A1.123 1.123 0 0 0 17.123 11H19.5l-.965 2.917-5.181.914-.23-1.84a1.133 1.133 0 0 0-2.248 0l-.29 2.328-4.934.87L4.5 13.5l3.233-1.212A1.181 1.181 0 0 0 7.32 10H1.5A1.5 1.5 0 0 0 0 11.5v6.943a1.5 1.5 0 0 0 1.76 1.478l8.436-1.488-.485 3.88A1.5 1.5 0 0 0 11.199 24h1.602a1.5 1.5 0 0 0 1.488-1.686l-.563-4.502 9.034-1.593A1.5 1.5 0 0 0 24 14.742zm-10.274 8.89-3.53.622.39-3.114 2.768-.488z" clip-rule="evenodd"/></svg>