<svg xmlns="http://www.w3.org/2000/svg" width="24" height="24" fill="none"><path fill="currentColor" fill-rule="evenodd" d="M5.673 0A.673.673 0 0 0 5 .673V6a7 7 0 0 0 5.5 6.839V24h3V12.839A7 7 0 0 0 19 6V.673a.673.673 0 0 0-1.202-.416L15.25 3.5 12.8.382A1 1 0 0 0 12.014 0h-.028a1 1 0 0 0-.786.382L8.75 3.5 6.202.257A.67.67 0 0 0 5.673 0M13.5 12.839V11.5a1.5 1.5 0 0 0-3 0v1.339a7 7 0 0 0 3 0M.364 16.275A1 1 0 0 1 1.326 15h2.403a5 5 0 0 1 4.807 3.626L9.5 22H5.772a5 5 0 0 1-4.808-3.626zM22.674 15a1 1 0 0 1 .962 1.275l-.6 2.099A5 5 0 0 1 18.23 22H14.5l.964-3.374A5 5 0 0 1 20.272 15z" clip-rule="evenodd"/></svg>