<svg xmlns="http://www.w3.org/2000/svg" width="24" height="24" fill="none"><path fill="currentColor" d="M15.874.342a.743.743 0 0 1 1.252 0l5.69 8.872A1.16 1.16 0 0 1 21.84 11h-2.21l4.224 7.353A1.1 1.1 0 0 1 22.9 20H18v2.5a1.5 1.5 0 0 1-3 0v-2.303A6 6 0 0 0 18 15c0-1.785-.78-3.388-2.016-4.487q.015-.254.016-.513a7.98 7.98 0 0 0-2.559-5.865z"/><path fill="currentColor" d="M14 10c0 .496-.06.979-.174 1.44A4 4 0 0 1 12 19H9.5v-3.5a1.5 1.5 0 1 0-3 0V19H4a4 4 0 0 1-1.826-7.56A6 6 0 1 1 14 10"/><path fill="currentColor" d="M6.5 19v3.5a1.5 1.5 0 1 0 3 0V19z"/></svg>