<svg xmlns="http://www.w3.org/2000/svg" width="24" height="24" fill="none"><path fill="currentColor" d="M10.5 4a1 1 0 0 0-1.98-.202 1.5 1.5 0 1 1-2.94-.596A4 4 0 0 1 12 .877a4 4 0 0 1 6.42 2.324 1.5 1.5 0 1 1-2.94.597A1.001 1.001 0 0 0 13.5 4v2h-3z"/><path fill="currentColor" fill-rule="evenodd" d="M7.5 9.5a3 3 0 0 1 3 2.995V16h-9a1.5 1.5 0 0 0 0 3H3v3.5A1.5 1.5 0 0 0 4.5 24h15a1.5 1.5 0 0 0 1.5-1.5V19h1.5a1.5 1.5 0 0 0 0-3h-9v-3.5a3 3 0 0 1 5.83-1 1.5 1.5 0 0 0 2.828-1A6.002 6.002 0 0 0 12 8.531 6.002 6.002 0 0 0 1.842 10.5a1.5 1.5 0 0 0 2.828 1 3 3 0 0 1 2.83-2m6 6.5v2.5a1.5 1.5 0 0 1-3 0V16z" clip-rule="evenodd"/></svg>