<svg xmlns="http://www.w3.org/2000/svg" width="24" height="24" fill="none"><path fill="currentColor" fill-rule="evenodd" d="M12 24c2.506 0 4.275-2.41 3.483-4.743l-1.174-3.459 2.771 3.047c1.669 1.834 4.677 1.53 5.929-.6 1.255-2.134.012-4.848-2.447-5.343L16.004 12l4.562-.92c2.452-.502 3.687-3.21 2.435-5.34-1.256-2.134-4.272-2.434-5.938-.59L14.31 8.199l1.173-3.456C16.275 2.41 14.506 0 12 0 9.495 0 7.725 2.41 8.518 4.743L9.69 8.198 6.937 5.15C5.272 3.306 2.255 3.606 1 5.74c-1.252 2.13-.018 4.838 2.434 5.34l4.57.92-4.57.92C.982 13.422-.252 16.13 1 18.26c1.255 2.134 4.272 2.434 5.937.59l2.754-3.048-1.173 3.455C7.725 21.59 9.495 24 12 24m-1.995-10h4v-4h-4z" clip-rule="evenodd"/></svg>