<svg xmlns="http://www.w3.org/2000/svg" width="24" height="24" fill="none"><path fill="currentColor" d="M0 6.5A1.5 1.5 0 0 1 1.5 5H13a1.5 1.5 0 0 1 1.5 1.5V13H0z"/><path fill="currentColor" d="M20.073 7H16v6H0v3h1.837a3.5 3.5 0 0 1 6.326 0h7.174a3.5 3.5 0 0 1 6.326 0h.837a1.5 1.5 0 0 0 1.5-1.5v-1.146a1.5 1.5 0 0 0-.158-.67L23.5 12h-4a.5.5 0 0 1-.5-.5v-2a.5.5 0 0 1 .5-.5H22l-.585-1.17A1.5 1.5 0 0 0 20.073 7"/><circle cx="4.988" cy="17.75" r="1.75" fill="currentColor"/><path fill="currentColor" d="M20.238 17.75a1.75 1.75 0 1 1-3.5 0 1.75 1.75 0 0 1 3.5 0"/></svg>