<svg xmlns="http://www.w3.org/2000/svg" width="24" height="24" fill="none"><path fill="currentColor" fill-rule="evenodd" d="M18 1a1 1 0 0 0-1 1v.846L1.5 4.322a1.5 1.5 0 0 0-1.5 1.5v11a1.5 1.5 0 0 0 1.5 1.5l21-2a1.5 1.5 0 0 0 1.5-1.5v-11a1.5 1.5 0 0 0-1.5-1.5l-1.5.143V2a1 1 0 0 0-1-1zm6 9.322v-6h-2.5a1.5 1.5 0 0 0-1.5 1.5v3a1.5 1.5 0 0 0 1.5 1.5zm-24 2h2.5a1.5 1.5 0 0 0 1.5-1.5v-3a1.5 1.5 0 0 0-1.5-1.5H0zM9.507 6a1.5 1.5 0 0 1 1.5 1.5v7a1.5 1.5 0 0 1-1.5 1.5h-2a1.5 1.5 0 0 1-1.5-1.5v-7a1.5 1.5 0 0 1 1.5-1.5zm8.5.5a1.5 1.5 0 0 0-1.5-1.5h-2a1.5 1.5 0 0 0-1.5 1.5v7a1.5 1.5 0 0 0 1.5 1.5h2a1.5 1.5 0 0 0 1.5-1.5zM0 21.36a.4.4 0 0 1 .359-.397l23.2-2.417a.4.4 0 0 1 .441.398v1.196a.4.4 0 0 1-.359.397l-23.2 2.417A.4.4 0 0 1 0 22.556z" clip-rule="evenodd"/></svg>