<svg xmlns="http://www.w3.org/2000/svg" width="24" height="24" fill="none"><path fill="currentColor" d="m3 4 5.5-.917v2.5l-3.753.626A1.5 1.5 0 0 1 3 4.729zM15.5 4.417v-2.5L21 1v1.23a1.5 1.5 0 0 1-1.253 1.48zM10.5 2h3v3.5a1.5 1.5 0 0 1-3 0z"/><path fill="currentColor" fill-rule="evenodd" d="M0 10.5A1.5 1.5 0 0 1 1.5 9h21a1.5 1.5 0 0 1 1.5 1.5V17v-6h-2.5a1.5 1.5 0 0 0-1.5 1.5v3a1.5 1.5 0 0 0 1.5 1.5H24v4.5a1.5 1.5 0 0 1-1.5 1.5h-21A1.5 1.5 0 0 1 0 21.5V17h2.5A1.5 1.5 0 0 0 4 15.5v-3A1.5 1.5 0 0 0 2.5 11H0v6zm9.5.5a1.5 1.5 0 0 1 1.5 1.5v7A1.5 1.5 0 0 1 9.5 21h-2A1.5 1.5 0 0 1 6 19.5v-7A1.5 1.5 0 0 1 7.5 11zm8.5 1.5a1.5 1.5 0 0 0-1.5-1.5h-2a1.5 1.5 0 0 0-1.5 1.5v7a1.5 1.5 0 0 0 1.5 1.5h2a1.5 1.5 0 0 0 1.5-1.5z" clip-rule="evenodd"/></svg>