<svg xmlns="http://www.w3.org/2000/svg" width="24" height="24" fill="none"><path fill="currentColor" fill-rule="evenodd" d="M4.759 3.206A1.5 1.5 0 0 1 6.229 2H8v-.5A1.5 1.5 0 0 1 9.5 0h5A1.5 1.5 0 0 1 16 1.5V2h1.77a1.5 1.5 0 0 1 1.471 1.206L21 12l-1 8H4l-1-8zm.967 7.096A1.5 1.5 0 0 0 7.213 12h9.574a1.5 1.5 0 0 0 1.487-1.698L17.5 4.5H16a1 1 0 0 1-1 1H9a1 1 0 0 1-1-1H6.5zM14 2h-4v2h4zM9 16a1.5 1.5 0 1 1-3 0 1.5 1.5 0 0 1 3 0m7.5 1.5a1.5 1.5 0 1 0 0-3 1.5 1.5 0 0 0 0 3" clip-rule="evenodd"/><path fill="currentColor" d="m9 22-1.05 1.4a1.5 1.5 0 0 1-1.2.6H3l3-2zM16.05 23.4 15 22h3l3 2h-3.75a1.5 1.5 0 0 1-1.2-.6"/></svg>