<svg xmlns="http://www.w3.org/2000/svg" width="24" height="24" fill="none"><path fill="currentColor" fill-rule="evenodd" d="M8.499 0a1.5 1.5 0 0 0-1.501 1.5V2H3.496a1.5 1.5 0 0 0-1.5 1.5V5A1 1 0 0 0 1 6v4a1 1 0 0 0 .996 1v10.5a1.5 1.5 0 0 0 1.5 1.5h2.001a1.5 1.5 0 0 0 1.501-1.5V20h10.004v1.5a1.5 1.5 0 0 0 1.5 1.5h2.002a1.5 1.5 0 0 0 1.5-1.5V11A1 1 0 0 0 23 10V6a1 1 0 0 0-.996-1V3.5a1.5 1.5 0 0 0-1.5-1.5h-3.502v-.5a1.5 1.5 0 0 0-1.5-1.5zM4.5 11.5A1.5 1.5 0 0 0 6 13h12a1.5 1.5 0 0 0 1.5-1.5V4h-4a1 1 0 0 1-1 1h-5a1 1 0 0 1-1-1h-4zm9.5-10h-4v2h4zm-7 15a1.5 1.5 0 1 1-3 0 1.5 1.5 0 0 1 3 0M17.5 18a1.5 1.5 0 1 0 0-3 1.5 1.5 0 0 0 0 3" clip-rule="evenodd"/></svg>