<svg xmlns="http://www.w3.org/2000/svg" width="24" height="24" fill="none"><path fill="currentColor" fill-rule="evenodd" d="M9.449 2.92a1.5 1.5 0 0 1 .314-.751L11.179.384a1 1 0 0 1 1.553-.016L14.22 2.16c.183.222.3.491.334.777L16.257 17H7.742zm2.55 8.08a1 1 0 0 0-1 1v2h2v-2a1 1 0 0 0-1-1" clip-rule="evenodd"/><path fill="currentColor" d="M7.742 17H6.506a1.5 1.5 0 0 0-1.477 1.236l-.714 4A1.5 1.5 0 0 0 5.79 24h12.417a1.5 1.5 0 0 0 1.477-1.764l-.715-4A1.5 1.5 0 0 0 17.494 17h-1.237l.243 2h-9z"/></svg>