<svg xmlns="http://www.w3.org/2000/svg" width="24" height="25" fill="none"><path fill="currentColor" d="M11.15 1.525A9.5 9.5 0 0 1 14.745.32a11.944 11.944 0 0 0-8.744 1.29A11.995 11.995 0 0 0 1.61 18.002a11.995 11.995 0 0 0 16.392 4.392 11.96 11.96 0 0 0 5.489-6.927 9.5 9.5 0 0 1-2.842 2.512 9.5 9.5 0 0 1-9.5-16.454"/><path fill="currentColor" d="M15.952 3.92a.5.5 0 0 0-.8.462l.423 3.248-2.696 1.858a.5.5 0 0 0 .192.904l3.22.601.934 3.139a.5.5 0 0 0 .918.096l1.567-2.876 3.274.081a.5.5 0 0 0 .375-.843L21.11 8.21l1.088-3.088a.5.5 0 0 0-.686-.618L18.553 5.91z"/></svg>