<svg xmlns="http://www.w3.org/2000/svg" width="24" height="24" fill="none"><path fill="currentColor" fill-rule="evenodd" d="M8.808 1.277 7.5 10h8l-1.308-8.723A1.5 1.5 0 0 0 12.708 0h-2.416a1.5 1.5 0 0 0-1.484 1.277M9.076 21.5c-.487-1.221-1.162-3.386-1.444-6.5H10v2.5a1.5 1.5 0 0 0 3 0V15h2.368c-.282 3.114-.957 5.279-1.444 6.5zM16.5 12h-10c-.828 0-1.503.673-1.47 1.5.208 5.147 1.445 8.401 2.086 9.764.22.468.698.736 1.215.736h6.338c.517 0 .995-.268 1.215-.736.64-1.363 1.878-4.617 2.086-9.764.034-.827-.642-1.5-1.47-1.5" clip-rule="evenodd"/></svg>