<svg xmlns="http://www.w3.org/2000/svg" width="24" height="24" fill="none"><path fill="currentColor" fill-rule="evenodd" d="M11.5 4.5c0 2.485-1.343 4.5-3 4.5s-3-2.015-3-4.5S6.843 0 8.5 0s3 2.015 3 4.5m4 10a3.5 3.5 0 1 0-7 0V16a1 1 0 0 1-1 1 3.5 3.5 0 1 0 0 7h9a3.5 3.5 0 1 0 0-7 1 1 0 0 1-1-1zm0-5.5c1.657 0 3-2.015 3-4.5S17.157 0 15.5 0s-3 2.015-3 4.5 1.343 4.5 3 4.5m7.92 3.075c-.644 2.4-2.382 4.02-3.882 3.618s-2.195-2.674-1.552-5.074S20.367 6.598 21.867 7s2.196 2.674 1.552 5.075M4.447 15.693c-1.5.402-3.238-1.218-3.881-3.618C-.077 9.674.618 7.402 2.119 7c1.5-.402 3.238 1.218 3.88 3.619.644 2.4-.05 4.672-1.551 5.074" clip-rule="evenodd"/></svg>