<svg xmlns="http://www.w3.org/2000/svg" width="24" height="24" fill="none"><path fill="currentColor" fill-rule="evenodd" d="M13.5 7.71A4.001 4.001 0 0 0 12 0a4 4 0 0 0-1.5 7.71V9.5H9.123a1.123 1.123 0 0 0-.272 2.213l1.515.378q.068.017.134.027v8.694c-3.143-.684-5.497-3.471-5.5-6.807H4V14H1.118a1.118 1.118 0 0 0-.27 2.203l1.478.368A10 10 0 0 0 12 24a10 10 0 0 0 9.674-7.429l1.478-.368a1.118 1.118 0 0 0-.27-2.203H20v.005h-1c-.003 3.336-2.357 6.123-5.5 6.807v-8.694q.068-.01.134-.027l1.515-.378a1.123 1.123 0 0 0-.272-2.213H13.5zm-3-5.21h3v3h-3z" clip-rule="evenodd"/></svg>