<svg xmlns="http://www.w3.org/2000/svg" width="24" height="24" fill="none"><path fill="currentColor" d="M21.5 2.5a2.5 2.5 0 1 1-5 0 2.5 2.5 0 0 1 5 0M10.731 1.024a1.5 1.5 0 0 1 1.114.237l5.5 3.75a1.5 1.5 0 0 1 .623.93l.749 3.559H22.5a1.5 1.5 0 0 1 0 3h-5a1.5 1.5 0 0 1-1.468-1.191l-.594-2.82-3.392 2.775 3.143 4.32A1.5 1.5 0 0 1 14 18H5.5a1.5 1.5 0 1 1 0-3h4.974l-3.261-3.386a2.5 2.5 0 0 1 .322-3.75L11.712 4.8l-1.049-.715-4.895.89a1.5 1.5 0 0 1-.537-2.952zM6.942 21.44 8.381 20h4.242l-3.56 3.56a1.5 1.5 0 1 1-2.121-2.12"/></svg>