<svg xmlns="http://www.w3.org/2000/svg" width="24" height="24" fill="none"><path fill="currentColor" fill-rule="evenodd" d="M3.809 5h3.19v2h10V5h3.192A.81.81 0 0 0 21 4.191a.67.67 0 0 0-.095-.356C20.437 3.082 18.145 0 12 0S3.563 3.082 3.095 3.835A.67.67 0 0 0 3 4.191c0 .447.362.809.809.809M12 5a1.5 1.5 0 1 0 0-3 1.5 1.5 0 0 0 0 3" clip-rule="evenodd"/><path fill="currentColor" d="M17 9H7v1a5 5 0 0 0 10 0zM3.716 17.136A1.5 1.5 0 0 1 5.17 16H10.5l.376 3.008a1.133 1.133 0 0 0 2.248 0L13.5 16h5.329a1.5 1.5 0 0 1 1.455 1.136l1.171 5A1.5 1.5 0 0 1 20 24H4a1.5 1.5 0 0 1-1.455-1.864z"/></svg>