<svg xmlns="http://www.w3.org/2000/svg" width="24" height="24" fill="none"><path fill="currentColor" fill-rule="evenodd" d="M1.54 7.197A5.065 5.065 0 0 1 1.124.505a1.085 1.085 0 0 1 1.624-.1l20.57 20.57a1.5 1.5 0 0 1 0 2.12l-.379.38a1.5 1.5 0 0 1-2.121 0l-6.44-6.44-1.712.343a1.5 1.5 0 0 1-1.355-.41zm4.924 7.752L.44 20.974a1.5 1.5 0 0 0 0 2.121l.379.379a1.5 1.5 0 0 0 2.121 0l6.025-6.025zM19.218.374A.806.806 0 0 0 18.17.296l-3.838 2.837a4 4 0 0 0-.45 6.045l.427.428.428.428a4 4 0 0 0 6.045-.45l2.837-3.84A.806.806 0 0 0 22.4 4.697l-3.672 3.673-.708-.708 3.405-4.023a.815.815 0 0 0-1.149-1.149l-4.023 3.405-.707-.707 3.672-3.673a.806.806 0 0 0 0-1.14" clip-rule="evenodd"/></svg>