<svg xmlns="http://www.w3.org/2000/svg" width="24" height="24" fill="none"><path fill="currentColor" d="M6 6a6 6 0 0 0-6 6v7.5A1.5 1.5 0 0 0 1.5 21h3v-.197a1.5 1.5 0 0 0-.668-1.248L3 19l.923-2.308L12 14v5.5a1.5 1.5 0 0 0 1.5 1.5h3v-.197a1.5 1.5 0 0 0-.668-1.248L15 19l1.895-6.632L24 10V8.5L22 8l-.17-.342A3 3 0 0 0 19.145 6H19v-.25a1.25 1.25 0 1 0-2.5 0V6z"/><path fill="currentColor" d="m6.246 19.814-.38-1.77 3.563-1.187L9 19l.832.555a1.5 1.5 0 0 1 .668 1.248V21H7.713a1.5 1.5 0 0 1-1.467-1.186M22.5 17l-4.61-2.963 4.36-1.454.978 1.63c.505.842.772 1.806.772 2.787z"/></svg>