<svg xmlns="http://www.w3.org/2000/svg" width="24" height="24" fill="none"><path fill="currentColor" d="M12 11.713a15 15 0 0 1 8.094-2.773A12.1 12.1 0 0 0 19.5 5.5a12.1 12.1 0 0 0-4.396 1.896A12.06 12.06 0 0 0 12 3a12.05 12.05 0 0 0-3.104 4.396A12.1 12.1 0 0 0 4.5 5.5a12.1 12.1 0 0 0-.594 3.44A15 15 0 0 1 12 11.713M10.43 12.817a14.07 14.07 0 0 0-4.135 6.828A12.07 12.07 0 0 1 0 11.398a12.07 12.07 0 0 1 10.43 1.42M24 11.398c-6.838-2.223-14.095 1.967-15.588 9 6.837 2.224 14.095-1.966 15.588-9"/></svg>