<svg xmlns="http://www.w3.org/2000/svg" width="24" height="24" fill="none"><path fill="currentColor" fill-rule="evenodd" d="M15.036 10.207a5 5 0 1 0-4.243-4.243zM9.379 7.38 11.5 9.5l2.121 2.121-5.84 4.942a1.5 1.5 0 0 1-2.03-.084l-.615-.615-.615-.615a1.5 1.5 0 0 1-.084-2.03zM8 11h2v2H8zm9.269 7.151a1.882 1.882 0 0 1 2.161 3.027l-.949.927a1 1 0 1 0 1.397 1.43l.95-.926a3.882 3.882 0 0 0-4.46-6.244L6.14 21.519a1.902 1.902 0 0 1-2.2-3.043l.487-.488-1.414-1.414-.488.487a3.902 3.902 0 0 0 4.515 6.244z" clip-rule="evenodd"/></svg>