<svg xmlns="http://www.w3.org/2000/svg" width="24" height="24" fill="none"><path fill="currentColor" d="M10 4a1.5 1.5 0 0 1 1.5-1.5h1A1.5 1.5 0 0 1 14 4v5h-4z"/><path fill="currentColor" fill-rule="evenodd" d="M2 14h-.5A1.5 1.5 0 0 1 0 12.5v-2A1.5 1.5 0 0 1 1.5 9H10v1.5a1.5 1.5 0 0 0 1.5 1.5h1a1.5 1.5 0 0 0 1.5-1.5V9h8.5a1.5 1.5 0 0 1 1.5 1.5v2a1.5 1.5 0 0 1-1.5 1.5H22l-1.759 8.794A1.5 1.5 0 0 1 18.771 24H5.23a1.5 1.5 0 0 1-1.471-1.206zm6 1.5H6v5h2zm5 0h-2v5h2zm5 0h-2v5h2z" clip-rule="evenodd"/></svg>