<svg xmlns="http://www.w3.org/2000/svg" width="24" height="24" fill="none"><path fill="currentColor" d="M21.923 8.024a2.5 2.5 0 1 1-4.89-1.044C17.32 5.68 18.65 4.819 20 5.057c1.35.339 2.211 1.667 1.923 2.967M12.357 8.935 11.5 8h-5a1.5 1.5 0 0 1 0-3h5.82a1.5 1.5 0 0 1 1.128.513l6.18 7.063a1.5 1.5 0 0 1 .372.988v.468a5.98 5.98 0 0 1-4-1.527 5.98 5.98 0 0 1-4 1.527 5.98 5.98 0 0 1-3.978-1.507L8 12.5zM4 15.995c1.537 0 2.939-.55 4-1.5 1.062.95 2.463 1.5 4 1.5s2.938-.55 4-1.5c1.061.95 2.463 1.5 4 1.5s2.939-.55 4-1.5V17.5c-1.11 1.025-2.37 1.5-4 1.5-1.471 0-2.935-.646-4-1.5-1.065.854-2.528 1.5-4 1.5s-2.935-.646-4-1.5c-1.065.854-2.529 1.5-4 1.5-1.63 0-2.89-.475-4-1.5v-3.005c1.062.95 2.463 1.5 4 1.5"/></svg>