<svg xmlns="http://www.w3.org/2000/svg" width="24" height="24" fill="none"><path fill="currentColor" fill-rule="evenodd" d="m10.7.75-2.597 4.5H2.906A1.5 1.5 0 0 0 1.607 7.5L4.206 12l-2.599 4.5a1.5 1.5 0 0 0 1.3 2.25h5.196l2.598 4.5c.577 1 2.02 1 2.598 0l2.598-4.5h5.196a1.5 1.5 0 0 0 1.3-2.25L19.793 12l2.598-4.5a1.5 1.5 0 0 0-1.299-2.25h-5.196L13.299.75c-.289-.5-.794-.75-1.3-.75-.504 0-1.01.25-1.298.75m-1.154 7L7.092 12l2.454 4.25h4.908L16.907 12l-2.453-4.25zm1.154-2.5L12 2.998l1.3 2.252zm2.6 13.498L12 21l-1.3-2.252zM4.205 7.498l1.3 2.253 1.3-2.252zm14.29 6.749 1.3 2.252h-2.6zM4.204 16.5h2.6l-1.3-2.252zm15.59-9.002-1.3 2.252-1.301-2.252z" clip-rule="evenodd"/></svg>