<svg xmlns="http://www.w3.org/2000/svg" width="24" height="24" fill="none"><path fill="currentColor" d="M9 .5a.5.5 0 0 1 .5-.5h1a.5.5 0 0 1 .5.5V2H9zM9 2v2H7V2.5a.5.5 0 0 1 .5-.5zM13 2v2h-2V2z"/><path fill="currentColor" fill-rule="evenodd" d="M15 2h-2V.5a.5.5 0 0 1 .5-.5h1a.5.5 0 0 1 .5.5zm0 0h1.5a.5.5 0 0 1 .5.5V4h-2zM.44 14.56A1.5 1.5 0 0 0 0 15.622V22.5A1.5 1.5 0 0 0 1.5 24h2A1.5 1.5 0 0 0 5 22.5V22h14v.5a1.5 1.5 0 0 0 1.5 1.5h2a1.5 1.5 0 0 0 1.5-1.5v-6.879a1.5 1.5 0 0 0-.44-1.06l-.81-.81a1.5 1.5 0 0 1-.362-.587L22.333 13H23a1 1 0 1 0 0-2h-1.333l-1.325-3.974A1.5 1.5 0 0 0 18.919 6H5.08a1.5 1.5 0 0 0-1.423 1.026L2.333 11H1a1 1 0 1 0 0 2h.667l-.055.164a1.5 1.5 0 0 1-.362.586zM2 16.75c0-.69.56-1.25 1.25-1.25h1.734a1.5 1.5 0 0 1 1.393.943L7 18H3.25C2.56 18 2 17.44 2 16.75m15.623-.307a1.5 1.5 0 0 1 1.392-.943h1.735a1.25 1.25 0 1 1 0 2.5H17zM19.698 13H4.302l1.5-4.5h12.396z" clip-rule="evenodd"/></svg>