<svg xmlns="http://www.w3.org/2000/svg" width="24" height="24" fill="none"><path fill="currentColor" fill-rule="evenodd" d="M12 0c6.947 0 10 5.931 10 12s-3.053 12-10 12S2 18.069 2 12 5.053 0 12 0m-1.563 17.333C11.15 18.313 12.163 19 14 19s2.85-.688 3.563-1.667C18.412 16.167 19 14.287 19 12s-.588-4.167-1.437-5.333C16.85 5.687 15.837 5 14 5s-2.85.688-3.563 1.667C9.588 7.833 9 9.713 9 12s.588 4.167 1.437 5.333m2.509-1.177c-.15.205-.294.355-.446.468q.104.075.212.131c.237.123.624.245 1.288.245s1.05-.122 1.288-.245c.234-.12.44-.3.658-.599C16.483 15.42 17 13.986 17 12s-.517-3.419-1.054-4.156c-.217-.298-.424-.479-.658-.6C15.051 7.123 14.664 7 14 7s-1.05.122-1.288.245q-.109.055-.212.131c.152.113.297.263.446.468C13.483 8.58 14 10.014 14 12s-.517 3.419-1.054 4.156" clip-rule="evenodd"/></svg>