<svg xmlns="http://www.w3.org/2000/svg" width="24" height="24" fill="none"><path fill="currentColor" fill-rule="evenodd" d="M17 0H7v.5A1.5 1.5 0 0 0 8.5 2h2v1.5H6.412a1.5 1.5 0 0 0-1.497 1.41L4 20h16l-.915-15.09a1.5 1.5 0 0 0-1.497-1.41H13.5V2h2A1.5 1.5 0 0 0 17 .5zm-3.5 3.5v2h-3v-2zm-5 9.5A1.5 1.5 0 0 1 7 11.5V6h2a1 1 0 0 0 1 1h4a1 1 0 0 0 1-1h2v5.5a1.5 1.5 0 0 1-1.5 1.5zm.5 3.5a1.5 1.5 0 1 1-3 0 1.5 1.5 0 0 1 3 0m9 0a1.5 1.5 0 1 1-3 0 1.5 1.5 0 0 1 3 0" clip-rule="evenodd"/><path fill="currentColor" d="M16.05 23.4 15 22h3l3 2h-3.75a1.5 1.5 0 0 1-1.2-.6M9 22H6l-3 2h3.75a1.5 1.5 0 0 0 1.2-.6z"/></svg>