<svg xmlns="http://www.w3.org/2000/svg" width="24" height="24" fill="none"><path fill="currentColor" d="M15.655 3.074Q16.07 3 16.5 3c2 0 3.775 1.233 4.5 2.997h-5.857A5 5 0 0 1 17.146 10c0 .75-.164 1.46-.46 2.098L12 7.412l-4.482 4.482A5 5 0 0 1 7.146 10c0-1.638.788-3.091 2.004-4.003H3C3.725 4.233 5.5 3 7.5 3c.454 0 .896.063 1.317.182L6 .365c1.76-.735 3.887-.35 5.3 1.063.362.362.656.77.882 1.207.225-.437.52-.845.88-1.207C14.478.014 16.605-.37 18.365.365z"/><path fill="currentColor" d="M12 10.5c-.564 0-1.032.435-1.074.997L10 24h4l-.926-12.503A1.077 1.077 0 0 0 12 10.5"/></svg>