<svg xmlns="http://www.w3.org/2000/svg" width="24" height="24" fill="none"><path fill="currentColor" fill-rule="evenodd" d="M16.904 7.571A4.502 4.502 0 0 0 8 8.5a4.5 4.5 0 0 0 4.5 4.5H17l.512 2.815A3.27 3.27 0 0 0 20.73 18.5H21a3 3 0 0 0 3-3h-1.944v.472a1.028 1.028 0 0 1-2.056 0V10a2.5 2.5 0 0 0-3.096-2.429M18 10.501a1 1 0 1 1-2 0 1 1 0 0 1 2 0" clip-rule="evenodd"/><path fill="currentColor" d="M15.5 15v4.838a1.162 1.162 0 0 1-2.265.367L12.5 18H3l-.735 2.205A1.162 1.162 0 0 1 0 19.838V11a5 5 0 0 1 5-5h1.498a6.5 6.5 0 0 0 6.002 9z"/></svg>