<svg xmlns="http://www.w3.org/2000/svg" width="23" height="21" fill="none"><path fill="currentColor" fill-rule="evenodd" d="M7.872 0a1.5 1.5 0 0 0-1.5 1.5V2H2.87a1.5 1.5 0 0 0-1.5 1.5V5a1 1 0 0 0-.996 1v3a1 1 0 0 0 .995 1v9.5A1.5 1.5 0 0 0 2.87 21h2a1.5 1.5 0 0 0 1.502-1.5V18h10.004v1.5a1.5 1.5 0 0 0 1.5 1.5h2.001a1.5 1.5 0 0 0 1.5-1.5V10a1 1 0 0 0 .997-1V6a1 1 0 0 0-.996-1V3.5a1.5 1.5 0 0 0-1.5-1.5h-3.502v-.5a1.5 1.5 0 0 0-1.5-1.5zM3.874 9.5a1.5 1.5 0 0 0 1.5 1.5h11.999a1.5 1.5 0 0 0 1.5-1.5V4h-4a1 1 0 0 1-1 1h-5a1 1 0 0 1-1-1h-4zm9.5-8H9.373v2h4.001zm-7 13a1.5 1.5 0 1 1-3 0 1.5 1.5 0 0 1 3 0m10.5 1.5a1.5 1.5 0 1 0 0-3 1.5 1.5 0 0 0 0 3" clip-rule="evenodd"/></svg>