<svg xmlns="http://www.w3.org/2000/svg" width="24" height="19" fill="none"><path fill="currentColor" d="M.875 1.5a1.5 1.5 0 0 1 1.5-1.5h10.5a1.5 1.5 0 0 1 1.5 1.5V10H.875z"/><path fill="currentColor" d="M19.948 3h-4.073v6l-15 1v3h.882c.561-1.182 2.722-2 4.118-2s3.056.818 3.617 2h5.018c.561-1.182 2.469-2 3.865-2s3.236.818 3.797 2h.203a1.5 1.5 0 0 0 1.5-1.5v-1.146a1.5 1.5 0 0 0-.158-.67L23.375 9h-4a.5.5 0 0 1-.5-.5v-3a.5.5 0 0 1 .5-.5h2.5l-.585-1.17A1.5 1.5 0 0 0 19.948 3"/><circle cx="5.875" cy="16" r="3" fill="currentColor"/><path fill="currentColor" d="M21.375 16a3 3 0 1 1-6 0 3 3 0 0 1 6 0"/></svg>