<svg xmlns="http://www.w3.org/2000/svg" width="14" height="22" fill="none"><path fill="currentColor" fill-rule="evenodd" d="M9.222 1.56c.66.752.61 1.918-.113 2.605a1.725 1.725 0 0 1-2.504-.118 1.895 1.895 0 0 1 .113-2.604 1.725 1.725 0 0 1 2.504.118M5.73 14.414l-.713 1.092q.054.035.111.065l1.42.738-.211.744a1.36 1.36 0 0 1-.295.535l-2.608 2.907a1.277 1.277 0 0 1-1.825.102c-.522-.485-.55-1.317-.065-1.858l2.399-2.673.34-1.2a4.7 4.7 0 0 0 .595.541l.087.063.03.022.013.007.005.004.002.001h.001c0 .001.001.002.714-1.09M4.808 8.35c-.037.358-.07.723-.104 1.08-.063.68-.123 1.333-.199 1.858l-.015.076-.01.051a2.83 2.83 0 0 0 .257 1.848c.386.755.993 1.151.993 1.151l.005.003 2.646 1.78c.17.113.294.283.35.48l1.032 3.576c.203.703.916 1.102 1.592.891.676-.21 1.06-.951.856-1.655l-1.277-4.43a1.32 1.32 0 0 0-.653-.807l-1.96-1.274a.88.88 0 0 1-.363-.975c.41-1.444 1.132-4.169 1.131-5.456 0-.287-.036-.503-.12-.617-.236-.324-.601-.538-1.034-.656-.481-.131-1.045-.143-1.61-.051l-.022-.002c-.758.074-1.25.36-2.473 1.068q-.321.187-.719.415a1.1 1.1 0 0 0-.563.6l-1.486 3.821c-.22.566.042 1.211.587 1.44s1.164-.044 1.384-.61l1.323-3.401zm5.124 1.23 1.979 2.057a.995.995 0 0 0 1.445 0c.4-.415.4-1.089 0-1.504l-2.984-3.104a10 10 0 0 1-.056.519 23 23 0 0 1-.384 2.031" clip-rule="evenodd"/></svg>