<svg xmlns="http://www.w3.org/2000/svg" width="54" height="54" fill="none"><path fill="#878787" d="M28.036 52.64a.4.4 0 0 1-.398.36h-1.276a.4.4 0 0 1-.398-.36l-.42-4.2a.4.4 0 0 1 .398-.44h2.116a.4.4 0 0 1 .398.44z"/><g fill="#878787"><path d="M52.64 25.964a.4.4 0 0 1 .36.398v1.276a.4.4 0 0 1-.36.398l-4.2.42a.4.4 0 0 1-.44-.398v-2.116a.4.4 0 0 1 .44-.398zM5.56 25.544a.4.4 0 0 1 .44.398v2.116a.4.4 0 0 1-.44.398l-4.2-.42a.4.4 0 0 1-.36-.398v-1.276a.4.4 0 0 1 .36-.398z"/></g><g fill="#CCC"><path d="M37.634 6.581a1 1 0 1 1 1.732 1 1 1 0 0 1-1.732-1M14.634 46.419a1 1 0 1 1 1.732 1 1 1 0 0 1-1.732-1"/></g><g fill="#CCC"><path d="M46.419 14.634a1 1 0 1 1 1 1.732 1 1 0 0 1-1-1.732M6.581 37.634a1 1 0 1 1 1 1.732 1 1 0 0 1-1-1.732"/></g><g fill="#CCC"><path d="M47.419 37.634a1 1 0 1 1-1 1.732 1 1 0 0 1 1-1.732M7.581 14.634a1 1 0 1 1-1 1.732 1 1 0 0 1 1-1.732"/></g><g fill="#CCC"><path d="M39.366 46.419a1 1 0 1 1-1.732 1 1 1 0 0 1 1.732-1M16.366 6.581a1 1 0 1 1-1.732 1 1 1 0 0 1 1.732-1"/></g><path fill="#F55159" fill-rule="evenodd" d="M26.668.494a.4.4 0 0 1 .664 0l3.484 5.185a.4.4 0 0 1-.05.507l-.585.581a.4.4 0 0 1-.507.048l-2.337-1.586a.6.6 0 0 0-.674 0l-2.337 1.586a.4.4 0 0 1-.507-.048l-.585-.581a.4.4 0 0 1-.05-.507z" clip-rule="evenodd"/></svg>